<?xml version="1.0" encoding="UTF-8" standalone="no"?>
<svg
   width="115.70618"
   height="126.03916"
   viewBox="0 0 115.70618 126.03916"
   version="1.1"
   id="svg104"
   sodipodi:docname="f060e76a6640a89622bb451834629804.svg"
   xmlns:inkscape="http://www.inkscape.org/namespaces/inkscape"
   xmlns:sodipodi="http://sodipodi.sourceforge.net/DTD/sodipodi-0.dtd"
   xmlns:xlink="http://www.w3.org/1999/xlink"
   xmlns="http://www.w3.org/2000/svg"
   xmlns:svg="http://www.w3.org/2000/svg">
  <sodipodi:namedview
     id="namedview106"
     pagecolor="#ffffff"
     bordercolor="#666666"
     borderopacity="1.0"
     inkscape:pageshadow="2"
     inkscape:pageopacity="0.0"
     inkscape:pagecheckerboard="0" />
  <defs
     id="defs9">
    <path
       id="prefix__a"
       d="M 0.063,0.049 H 109.307 V 89.026 H 0.063 Z" />
    <path
       id="prefix__c"
       d="M 0.066,0.028 H 46.648 V 42.414 H 0.066 Z" />
    <path
       id="prefix__e"
       d="M 0.11,0.021 H 10.501 V 7.184 H 0.11 Z" />
    <path
       id="prefix__g"
       d="M 0.087,0.074 H 3.578 V 21.088 H 0.087 Z" />
    <path
       id="prefix__i"
       d="M 0.025,0.079 H 9.124 V 10.436 H 0.025 Z" />
    <path
       id="prefix__k"
       d="M 0.052,0.068 H 19.649 V 5.825 H 0.052 Z" />
    <path
       id="prefix__m"
       d="M 0.057,0.059 H 21.285 V 7.785 H 0.057 Z" />
  </defs>
  <g
     fill="none"
     fill-rule="evenodd"
     id="g102"
     transform="translate(-14.470744,-9.167)">
    <g
       transform="translate(20.87,41.862)"
       id="g16">
      <mask
         id="prefix__b"
         fill="#ffffff">
        <use
           xlink:href="#prefix__a"
           id="use11"
           x="0"
           y="0"
           width="100%"
           height="100%" />
      </mask>
      <path
         fill="#191f28"
         d="M 109.247,23.598 C 108.505,13.713 100.641,5.655 90.776,4.686 88.974,4.509 87.215,4.566 85.523,4.829 81.985,5.379 78.379,4.926 75.079,3.533 55.596,-4.693 32.432,1.945 20.5,20.297 18.033,24.093 16.221,28.124 15.033,32.26 13.93,36.1 11.757,39.589 8.53,41.944 3.027,45.962 -0.41,52.643 0.116,60.092 c 0.692,9.792 8.388,17.847 18.14,18.967 1.291,0.149 2.561,0.176 3.8,0.093 4.083,-0.275 8.182,0.58 11.62,2.8 0.345,0.223 0.694,0.442 1.047,0.657 20.02,12.167 46.387,6.545 59.703,-12.732 4.895,-7.088 7.44,-15.062 7.84,-23.033 0.175,-3.52 1.29,-6.958 3.314,-9.843 2.629,-3.744 4.043,-8.401 3.667,-13.403"
         mask="url(#prefix__b)"
         id="path14" />
    </g>
    <path
       fill="#0095ff"
       d="m 36.432,61.35 c 0.494,0.451 1.757,1.015 4.913,0.47 4.807,-0.828 12.942,-1.624 21.607,0.224 8.665,1.849 12.89,2.974 19.403,3.08 6.514,0.107 8.48,-1.76 8.272,-5.069 0,0 0.266,0.803 -0.175,3.595 -0.442,2.79 -1.297,6.358 -0.036,12 1.262,5.644 1.362,8.01 -1.14,7.603 -2.503,-0.408 -13.637,-1.164 -12.609,2.405 1.028,3.57 2.282,10.25 -2.026,10.072 C 70.333,95.552 61.148,95.03 51.103,89.521 41.06,84.012 41.585,79.552 35.326,79.178 c 0,0 -0.96,-2.85 -0.131,-5.22 0.479,-1.367 1.695,-2.665 1.479,-5.78 -0.217,-3.114 -1.27,-3.76 -0.242,-6.828"
       transform="translate(14.47,9.094)"
       id="path18" />
    <path
       fill="#a0644a"
       d="m 66.406,31.888 c 0,0 -2.054,2.204 -0.036,7.794 2.018,5.59 11.214,9.096 16.738,10.585 5.524,1.489 8.981,9.543 6.914,12.438 C 87.088,66.81 79.398,64.9 69.847,63.187 64.455,62.22 59.484,61.533 59.484,61.533 c -13.562,-1.39 -14.622,0.24 -20.42,0.24 0,0 -3.384,0.155 -2.772,-2.924 0.612,-3.08 2.624,-7.127 14.312,-7.136 3.199,-0.003 2.229,-3.985 1.418,-5.505 -0.81,-1.52 -2.624,-1.339 -2.624,-1.339 -4.91,-0.02 -4.098,-3.557 -8.137,-9.108 -4.039,-5.551 -2.186,-5.71 -3.4,-8.85 -1.213,-3.14 -0.202,-6.204 -0.202,-6.204 0,0 2.903,-1.822 10.779,-0.981 7.876,0.842 13.923,6.383 17.968,12.162"
       transform="translate(14.47,9.094)"
       id="path20" />
    <g
       transform="translate(45.973,9.139)"
       id="g27">
      <mask
         id="prefix__d"
         fill="#ffffff">
        <use
           xlink:href="#prefix__c"
           id="use22"
           x="0"
           y="0"
           width="100%"
           height="100%" />
      </mask>
      <path
         fill="#4c576c"
         d="m 6.157,20.661 c 0,0 1.57,2.017 4.34,1.033 2.77,-0.984 3.277,-3.193 7.311,0.228 2.618,2.22 5.082,2.148 6.624,1.84 1.305,-0.261 3.853,0.156 4.8,2.671 0.949,2.515 -0.422,2.843 2.688,3.463 3.109,0.62 -1.532,2.963 2.583,9.39 4.115,6.429 3.537,1.225 5.441,-0.442 1.905,-1.666 7.577,-0.877 3.455,-7.647 -4.423,-7.266 1.013,-7.153 2.567,-8.855 1.555,-1.706 0.471,-3.557 -3.474,-8.557 C 38.547,8.786 46.504,3.575 39.395,4.834 32.287,6.092 33.883,-1.696 27.625,0.957 21.367,3.61 18.232,-3.151 14.274,2.069 10.315,7.289 4.139,1.547 5.878,8.246 c 1.74,6.699 -9.017,6.288 -4.841,11.213 4.176,4.925 -1.994,7.778 2.252,10.796 4.245,3.017 -0.27,4.033 3.819,5.489 4.088,1.456 -0.527,-2.57 -0.496,-6.07 0.031,-3.5 -2.089,-6.1 -0.455,-9.013"
         mask="url(#prefix__d)"
         id="path25" />
    </g>
    <path
       fill="#0095ff"
       d="m 38.044,97.306 c 0,0 0.396,4.126 0,7.716 -0.396,3.591 -1.727,6.3 1.894,4.994 3.62,-1.307 21.553,-2.684 30.484,-1.73 8.933,0.953 -0.79,-1.978 -5.074,-3.92 -9.213,-4.175 -15.044,-7.82 -27.304,-7.06"
       transform="translate(14.47,9.094)"
       id="path29" />
    <path
       fill="#a0644a"
       d="m 36.128,97.488 c 0,0 2.13,8.264 -2.014,9.468 -4.143,1.204 -6.574,-3.797 -7.037,-6.042 -0.463,-2.246 -1.213,-3.71 -3.878,-5.18 -4.732,-2.615 -7.836,-9.89 -4.688,-13.247 3.149,-3.357 3.126,-0.81 9.052,0 5.926,0.81 3.302,-4.574 9.525,-2.726 6.222,1.848 5.794,6.577 16.956,11.248 11.161,4.67 24.66,7.273 23.598,1.308 -1.06,-5.965 -3.16,-8.565 3.363,-9.3 6.522,-0.734 9.759,-0.858 9.708,2.428 -0.05,3.286 2.578,24.468 -7.37,23.665 -9.949,-0.804 -20.834,-4.286 -29.07,-8.419 -8.238,-4.132 -14.049,-3.974 -18.145,-3.203"
       transform="translate(14.47,9.094)"
       id="path31" />
    <path
       fill="#b5a1ff"
       d="m 27.563,82.487 c 1.197,0.163 2.045,0.074 2.688,-0.157 L 20.52,75.372 C 20.034,75.025 19.451,74.838 18.854,74.838 H 9.65 c -0.612,0 -0.863,0.787 -0.363,1.14 l 9.224,6.509 c 3.148,-3.357 3.125,-0.81 9.051,0"
       transform="translate(14.47,9.094)"
       id="path33" />
    <path
       fill="#7033f9"
       d="m 37.249,113.32 c 1.566,-4.25 1.656,-3.877 8.577,-4.889 8.438,-1.233 27.074,-1.425 29.541,1.58 0,0 4.447,5.41 4.375,8.203 -0.072,2.795 -12.18,5.375 -23.609,3.01 -11.428,-2.364 -14.008,-6.062 -18.884,-7.903"
       transform="translate(14.47,9.094)"
       id="path35" />
    <g
       transform="translate(63.903,50.827)"
       id="g42">
      <mask
         id="prefix__f"
         fill="#ffffff">
        <use
           xlink:href="#prefix__e"
           id="use37"
           x="0"
           y="0"
           width="100%"
           height="100%" />
      </mask>
      <path
         fill="#002259"
         d="M 9.325,0.387 C 5.892,2.836 0.11,3.13 0.11,3.13 0.557,3.124 1.918,3.215 2.589,4.475 2.926,5.106 3.289,6.163 3.37,7.184 9.786,5.22 12.145,-1.624 9.325,0.387"
         mask="url(#prefix__f)"
         id="path40" />
    </g>
    <g
       transform="translate(88.557,82.654)"
       id="g49">
      <mask
         id="prefix__h"
         fill="#ffffff">
        <use
           xlink:href="#prefix__g"
           id="use44"
           x="0"
           y="0"
           width="100%"
           height="100%" />
      </mask>
      <path
         fill="#002259"
         d="m 3.144,10.518 c 0,0 -1.756,-3.938 -1.937,-9.496 -0.16,-4.907 -3.293,10.359 1.684,20.066 1.332,-2.01 0.449,-6.35 -0.311,-8.99 -0.193,-0.667 0.04,-1.184 0.564,-1.58"
         mask="url(#prefix__h)"
         id="path47" />
    </g>
    <g
       transform="translate(41.939,98.916)"
       id="g56">
      <mask
         id="prefix__j"
         fill="#ffffff">
        <use
           xlink:href="#prefix__i"
           id="use51"
           x="0"
           y="0"
           width="100%"
           height="100%" />
      </mask>
      <path
         fill="#002259"
         d="M 9.124,10.436 C 8.971,8.876 8.66,7.666 8.66,7.666 c 0,0 -7.115,0.238 -8.588,-7.587 0,0 -1.254,8.728 9.052,10.357"
         mask="url(#prefix__j)"
         id="path54" />
    </g>
    <path
       fill="#4c576c"
       d="m 75.415,26.105 c 0,0.215 -0.174,0.388 -0.387,0.388 -0.215,0 -0.388,-0.173 -0.388,-0.388 0,-0.214 0.173,-0.387 0.388,-0.387 0.213,0 0.387,0.173 0.387,0.387 m -1.017,-16.2 c 0,0.28 -0.228,0.508 -0.509,0.508 -0.28,0 -0.509,-0.228 -0.509,-0.508 0,-0.281 0.228,-0.509 0.51,-0.509 0.28,0 0.508,0.228 0.508,0.509 M 32.448,24.11 c 0,0.384 -0.311,0.695 -0.695,0.695 -0.383,0 -0.694,-0.311 -0.694,-0.694 0,-0.383 0.311,-0.695 0.694,-0.695 0.384,0 0.695,0.312 0.695,0.695"
       transform="translate(14.47,9.094)"
       id="path58" />
    <path
       fill="#a0644a"
       d="m 50.383,49.198 c 0,0.143 -0.116,0.258 -0.258,0.258 -0.144,0 -0.258,-0.115 -0.258,-0.258 0,-0.142 0.114,-0.258 0.258,-0.258 0.142,0 0.258,0.116 0.258,0.258 M 33.82,57.654 c 0,0.303 -0.246,0.548 -0.55,0.548 -0.302,0 -0.548,-0.245 -0.548,-0.548 0,-0.303 0.246,-0.55 0.548,-0.55 0.304,0 0.55,0.247 0.55,0.55"
       transform="translate(14.47,9.094)"
       id="path60" />
    <path
       fill="#0095ff"
       d="m 34.337,70.517 c 0,0.396 -0.323,0.719 -0.72,0.719 -0.397,0 -0.718,-0.323 -0.718,-0.72 0,-0.396 0.321,-0.718 0.719,-0.718 0.396,0 0.719,0.322 0.719,0.719"
       transform="translate(14.47,9.094)"
       id="path62" />
    <path
       fill="#b5a1ff"
       d="m 14.782,83.509 c 0,0.435 -0.353,0.789 -0.789,0.789 -0.435,0 -0.789,-0.354 -0.789,-0.79 0,-0.435 0.354,-0.788 0.79,-0.788 0.435,0 0.788,0.353 0.788,0.789"
       transform="translate(14.47,9.094)"
       id="path64" />
    <path
       fill="#0095ff"
       d="m 92.69,67.784 c 0,0.374 -0.305,0.678 -0.68,0.678 -0.375,0 -0.677,-0.304 -0.677,-0.678 0,-0.375 0.302,-0.679 0.677,-0.679 0.375,0 0.68,0.304 0.68,0.68"
       transform="translate(14.47,9.094)"
       id="path66" />
    <path
       fill="#191f28"
       d="m 90.992,33.922 c 0,1.47 -1.192,2.662 -2.662,2.662 -1.471,0 -2.663,-1.192 -2.663,-2.662 0,-1.47 1.192,-2.662 2.663,-2.662 1.47,0 2.662,1.192 2.662,2.662"
       transform="translate(14.47,9.094)"
       id="path68" />
    <path
       fill="#a0644a"
       d="m 92.52,85.608 c 0,0.25 -0.204,0.454 -0.455,0.454 -0.25,0 -0.454,-0.203 -0.454,-0.454 0,-0.251 0.203,-0.455 0.454,-0.455 0.25,0 0.454,0.204 0.454,0.455 M 83.42,48.047 c 0,0.372 -0.301,0.674 -0.674,0.674 -0.372,0 -0.674,-0.302 -0.674,-0.674 0,-0.373 0.302,-0.675 0.674,-0.675 0.373,0 0.675,0.302 0.675,0.675"
       transform="translate(14.47,9.094)"
       id="path70" />
    <path
       fill="#4c576c"
       d="m 75.497,38.728 c 0,0.178 -0.144,0.322 -0.322,0.322 -0.177,0 -0.322,-0.144 -0.322,-0.322 0,-0.177 0.145,-0.321 0.322,-0.321 0.178,0 0.322,0.144 0.322,0.321"
       transform="translate(14.47,9.094)"
       id="path72" />
    <path
       fill="#002259"
       d="m 14.958,101.024 c 0,0.537 -0.436,0.972 -0.972,0.972 -0.537,0 -0.972,-0.435 -0.972,-0.972 0,-0.536 0.435,-0.971 0.972,-0.971 0.536,0 0.972,0.435 0.972,0.971"
       transform="translate(14.47,9.094)"
       id="path74" />
    <path
       fill="#fca700"
       d="m 91.206,115.162 c 0,0.32 -0.26,0.58 -0.58,0.58 -0.32,0 -0.578,-0.26 -0.578,-0.58 0,-0.32 0.259,-0.58 0.579,-0.58 0.32,0 0.579,0.26 0.579,0.58"
       transform="translate(14.47,9.094)"
       id="path76" />
    <g
       transform="translate(57.18,92.39)"
       id="g83">
      <mask
         id="prefix__l"
         fill="#ffffff">
        <use
           xlink:href="#prefix__k"
           id="use78"
           x="0"
           y="0"
           width="100%"
           height="100%" />
      </mask>
      <path
         fill="#002259"
         d="M 0.05,0.068 C 1.722,1.687 3.91,3.668 7.682,5.825 20.655,3.627 23.52,-0.47 14.109,0.845 6.286,1.937 1.606,0.631 0.051,0.067"
         mask="url(#prefix__l)"
         id="path81" />
    </g>
    <g
       transform="translate(23.435,83.874)"
       id="g90">
      <mask
         id="prefix__n"
         fill="#ffffff">
        <use
           xlink:href="#prefix__m"
           id="use85"
           x="0"
           y="0"
           width="100%"
           height="100%" />
      </mask>
      <path
         fill="#002259"
         d="m 0.324,1.2 0.154,0.108 h 9.127 c 0.597,0 1.18,0.187 1.666,0.535 l 8.308,5.94 c 0.699,0.015 1.257,-0.07 1.707,-0.232 L 11.555,0.593 C 11.069,0.245 10.486,0.058 9.889,0.058 H 0.686 c -0.613,0 -0.863,0.788 -0.362,1.142"
         mask="url(#prefix__n)"
         id="path88" />
    </g>
    <path
       stroke="#fca700"
       stroke-linecap="round"
       stroke-linejoin="round"
       stroke-width="1.688"
       d="m 18.777,91.226 c 0,0 -13.485,14.088 2.33,9.516 15.815,-4.572 35.302,-5.022 59.886,11.243 24.585,16.264 1.803,17.913 9.634,3.147"
       transform="translate(14.47,9.094)"
       id="path92" />
    <path
       stroke="#0095ff"
       stroke-linecap="round"
       stroke-linejoin="round"
       stroke-width="2.25"
       d="m 69.313,32.277 c 0,2.674 -2.168,4.841 -4.842,4.841 -2.675,0 -4.842,-2.167 -4.842,-4.841 0,-2.674 2.167,-4.842 4.842,-4.842"
       transform="translate(14.47,9.094)"
       id="path94" />
    <path
       fill="#0095ff"
       d="m 22.754,52.639 c 0,-6.53 -5.5,-11.774 -12.12,-11.353 -5.558,0.353 -10.115,4.8 -10.59,10.348 -0.298,3.47 0.964,6.646 3.16,8.915 l -0.002,0.002 7.58,9.376 c 0.307,0.378 0.884,0.378 1.189,0 l 7.58,-9.376 v -0.002 c 1.981,-2.048 3.203,-4.835 3.203,-7.91"
       transform="translate(14.47,9.094)"
       id="path96" />
    <path
       fill="#f5f7f8"
       d="m 18.947,52.639 c 0,4.18 -3.39,7.57 -7.57,7.57 -4.18,0 -7.57,-3.39 -7.57,-7.57 0,-4.18 3.39,-7.57 7.57,-7.57 4.18,0 7.57,3.39 7.57,7.57"
       transform="translate(14.47,9.094)"
       id="path98" />
    <path
       fill="#191f28"
       fill-rule="nonzero"
       d="m 15.381,49.354 c 0.263,-0.262 0.689,-0.262 0.951,0 0.246,0.246 0.262,0.636 0.046,0.9 l -0.046,0.051 -5.618,5.619 c -0.246,0.246 -0.636,0.261 -0.9,0.046 L 9.763,55.924 6.422,52.582 c -0.263,-0.262 -0.263,-0.688 0,-0.95 0.246,-0.247 0.635,-0.262 0.9,-0.047 l 0.05,0.046 2.866,2.866 z"
       transform="translate(14.47,9.094)"
       id="path100" />
  </g>
</svg>
