<?xml version="1.0" encoding="UTF-8"?>
<svg id="Camada_2" data-name="Camada 2" xmlns="http://www.w3.org/2000/svg" viewBox="0 0 135.67 109.93">
  <g id="Camada_1-2" data-name="Camada 1">
    <g>
      <g>
        <path d="M72.61,53.03h-15.97V21c0-2.48-.42-4.38-1.26-5.72-.84-1.34-2.46-2.01-4.87-2.01s-4.15,.69-5.02,2.06c-.87,1.37-1.31,3.26-1.31,5.67V53.03h-15.77V21c0-2.48-.42-4.38-1.26-5.72-.84-1.34-2.5-2.01-4.97-2.01-4.35,0-6.53,2.58-6.53,7.73V53.03H0V.91H7.13l3.72,6.93C13.79,2.62,19.01,0,26.51,0c6.9,0,11.82,2.48,14.76,7.43,1.07-1.81,2.81-3.5,5.22-5.07C48.91,.8,52.02,0,55.84,0c2.81,0,5.24,.39,7.28,1.16,2.04,.77,3.67,1.77,4.87,3.01,1.21,1.24,2.16,2.81,2.86,4.72,.7,1.91,1.17,3.82,1.41,5.72,.23,1.91,.35,4.13,.35,6.68v31.73Z"/>
        <path d="M127.64,16.58c.8,2.95,1.21,6.23,1.21,9.84s-.42,6.93-1.26,9.94c-.84,3.01-2.18,5.81-4.02,8.39-1.84,2.58-4.5,4.6-7.98,6.08-3.48,1.47-7.67,2.21-12.55,2.21s-9.07-.74-12.55-2.21c-3.48-1.47-6.13-3.53-7.93-6.18-1.81-2.64-3.11-5.44-3.92-8.39-.8-2.95-1.21-6.23-1.21-9.84s.4-6.9,1.21-9.84c.8-2.95,2.12-5.71,3.97-8.29,1.84-2.58,4.5-4.6,7.98-6.08C94.06,.75,98.25,0,103.14,0s8.97,.74,12.45,2.21c3.48,1.47,6.16,3.5,8.03,6.08,1.87,2.58,3.21,5.34,4.02,8.29Zm-16.32,19.83c1.64-2.31,2.46-5.64,2.46-9.99s-.79-7.67-2.36-9.94c-1.57-2.28-4.34-3.41-8.28-3.41s-6.53,1.14-8.13,3.41c-1.61,2.28-2.41,5.59-2.41,9.94,0,8.97,3.48,13.46,10.44,13.46,3.88,0,6.64-1.15,8.29-3.46Z"/>
        <path d="M72.61,109.64l21.59-51.22h17.57l20.49,51.22h-17.27l-11.95-37.16-12.45,37.16h-17.98Z"/>
        <path d="M21.67,85.99c-1.64-4.39-1.32-8.7,.97-12.94,2.29-4.24,6.61-7.9,12.96-10.98,15.03-7.31,26.19-3.47,33.47,11.5,1.16,2.38,2.04,4.7,2.65,6.97,.61,2.26,.89,4.64,.83,7.12-.06,2.48-.57,4.82-1.54,7.01-.97,2.19-2.57,4.35-4.79,6.48-2.22,2.13-5.07,4.04-8.53,5.72-3.97,1.93-7.68,2.95-11.14,3.05-3.46,.1-6.49-.62-9.1-2.15-2.6-1.54-4.84-3.43-6.71-5.68-1.86-2.25-3.54-4.91-5.03-7.97-.83-1.7-1.39-3.01-1.69-3.91l29.61-14.39c-2.98-5.85-7.28-7.4-12.89-4.67-4.31,2.1-6.05,4.8-5.21,8.11l-13.87,6.74Zm20.36,6.62c2.59,5.33,6.47,6.74,11.63,4.23,4.94-2.4,6.36-6.39,4.28-11.97l-15.91,7.73Z"/>
        <circle cx="7.89" cy="66.21" r="7.78"/>
      </g>
      <g>
        <path d="M127.58,.58h-1.6V0h3.88V.58h-1.6V5.25h-.69V.58Z"/>
        <path d="M134.87,2.94c-.04-.73-.09-1.61-.08-2.26h-.02c-.18,.61-.4,1.27-.66,1.99l-.93,2.54h-.51l-.85-2.5c-.25-.74-.46-1.42-.61-2.04h-.02c-.02,.65-.05,1.53-.1,2.32l-.14,2.25h-.65l.37-5.25h.86l.9,2.54c.22,.65,.4,1.22,.53,1.77h.02c.13-.53,.32-1.11,.55-1.77l.93-2.54h.86l.33,5.25h-.66l-.13-2.3Z"/>
      </g>
    </g>
  </g>
</svg>